<?xml version="1.0" standalone="no"?>
<!DOCTYPE svg PUBLIC "-//W3C//DTD SVG 20010904//EN"
 "http://www.w3.org/TR/2001/REC-SVG-20010904/DTD/svg10.dtd">
<svg version="1.0" xmlns="http://www.w3.org/2000/svg"
 width="526.000000pt" height="400.000000pt" viewBox="0 0 526.000000 400.000000"
 preserveAspectRatio="xMidYMid meet">
<metadata>
Created by potrace 1.16, written by Peter Selinger 2001-2019
</metadata>
<g transform="translate(0.000000,400.000000) scale(0.100000,-0.100000)"
fill="#000000" stroke="none">
<path d="M3805 3161 c-3 -10 -18 -22 -32 -26 -80 -20 -187 -119 -235 -217 -16
-31 -28 -62 -28 -67 0 -7 24 -11 60 -11 33 0 60 -2 60 -5 0 -22 -136 -255
-218 -374 -51 -74 -76 -124 -117 -235 -54 -148 -90 -225 -122 -265 l-19 -24
-22 50 c-11 27 -31 86 -44 131 l-23 82 -62 0 c-49 0 -63 -3 -63 -15 0 -8 13
-55 29 -105 28 -88 28 -89 9 -107 -18 -16 -20 -16 -43 12 -51 62 -119 225
-215 515 -54 165 -117 338 -139 385 l-40 85 65 0 65 0 -18 31 c-25 44 -98 106
-151 129 -85 38 -215 17 -356 -58 l-91 -49 -43 38 c-137 121 -271 108 -422
-40 -110 -108 -209 -273 -445 -740 -86 -171 -102 -218 -131 -376 -24 -134 -29
-125 79 -125 114 0 178 18 240 66 53 41 73 71 191 284 l87 155 -75 3 -75 3 36
62 c50 85 145 226 216 322 60 80 288 315 305 315 5 0 15 -18 22 -41 17 -50 26
-56 51 -33 20 18 21 18 37 -3 9 -12 31 -23 47 -25 26 -3 35 -13 73 -86 24 -45
84 -187 133 -315 96 -249 169 -410 217 -479 34 -50 110 -126 144 -144 21 -12
21 -13 -20 -23 -36 -10 -48 -9 -87 8 -24 11 -67 40 -94 66 l-49 46 -68 -3 -69
-3 39 -42 c21 -23 62 -54 91 -68 l54 -25 414 0 414 0 59 30 c80 40 162 115
261 240 79 100 82 105 58 108 -14 2 -25 6 -25 10 0 4 18 34 40 67 l40 60 -44
10 -45 10 128 265 c70 146 162 329 204 407 42 77 77 144 77 147 0 3 -69 6
-154 6 -143 0 -155 -1 -161 -19z"/>
<path d="M1816 1529 c-96 -23 -146 -82 -146 -173 0 -95 28 -131 155 -194 123
-61 144 -99 75 -135 -44 -22 -106 -16 -173 18 -27 14 -51 25 -53 25 -3 0 -4
-33 -2 -72 l3 -73 35 -12 c19 -7 80 -12 135 -12 85 -1 108 3 151 23 68 32 97
78 97 155 0 99 -34 139 -176 206 -92 43 -114 73 -80 107 38 37 112 35 216 -7
15 -6 17 0 17 63 l0 70 -50 11 c-60 13 -149 13 -204 0z"/>
<path d="M1236 1522 c-3 -5 -50 -132 -105 -283 -54 -151 -104 -286 -110 -301
l-11 -28 84 0 83 0 18 65 17 65 108 0 107 0 18 -61 c10 -34 24 -63 30 -66 7
-2 44 -3 82 -1 l71 3 -108 305 -108 305 -85 3 c-47 1 -88 -1 -91 -6z m122
-262 l30 -95 -65 -3 c-36 -2 -67 -1 -69 0 -2 2 11 49 29 105 18 56 35 98 39
95 3 -4 20 -50 36 -102z"/>
<path d="M2190 1220 l0 -310 75 0 75 0 0 104 0 103 78 5 c127 8 202 62 221
161 9 48 0 122 -19 157 -17 32 -72 68 -120 79 -25 6 -105 11 -177 11 l-133 0
0 -310z m275 165 c33 -32 33 -84 2 -121 -18 -21 -35 -28 -75 -32 l-52 -5 0 92
0 91 50 0 c41 0 56 -5 75 -25z"/>
<path d="M2930 1221 l0 -311 40 0 40 0 2 245 3 245 158 -245 159 -245 49 0 49
0 0 310 0 310 -40 0 -40 0 0 -252 0 -252 -159 250 -158 249 -52 3 -51 3 0
-310z"/>
<path d="M3580 1220 l0 -310 170 0 170 0 0 35 0 35 -130 0 -130 0 0 105 0 105
115 0 115 0 0 35 0 35 -115 0 -115 0 0 95 0 95 120 0 120 0 0 40 0 40 -160 0
-160 0 0 -310z"/>
<path d="M3960 1490 l0 -40 90 0 90 0 0 -270 0 -270 40 0 40 0 0 270 0 270 90
0 90 0 0 40 0 40 -220 0 -220 0 0 -40z"/>
</g>
</svg>
