<?xml version="1.0" standalone="no"?>
<!DOCTYPE svg PUBLIC "-//W3C//DTD SVG 20010904//EN"
 "http://www.w3.org/TR/2001/REC-SVG-20010904/DTD/svg10.dtd">
<svg version="1.0" xmlns="http://www.w3.org/2000/svg"
 width="238.000000pt" height="212.000000pt" viewBox="0 0 238.000000 212.000000"
 preserveAspectRatio="xMidYMid meet">
<metadata>
Created by potrace 1.16, written by Peter Selinger 2001-2019
</metadata>
<g transform="translate(0.000000,212.000000) scale(0.100000,-0.100000)"
fill="#000000" stroke="none">
<path d="M1110 1726 c0 -11 82 -170 102 -198 28 -40 6 -37 -87 12 -42 22 -77
40 -79 40 -2 0 -1 -11 2 -25 2 -14 2 -25 -1 -25 -3 0 -35 14 -72 30 -56 25
-66 27 -60 13 22 -55 22 -55 -41 -48 -32 4 -68 9 -78 12 -18 5 -18 4 2 -22 12
-15 22 -31 22 -35 0 -5 -32 -14 -72 -20 l-72 -13 27 -22 28 -22 -57 -37 c-43
-29 -53 -40 -43 -47 8 -5 22 -9 32 -9 24 0 22 -4 -23 -64 -22 -29 -40 -56 -40
-59 0 -4 14 -7 31 -7 31 0 31 -1 25 -35 -21 -117 -21 -108 2 -96 34 18 39 14
56 -50 17 -58 18 -60 36 -44 18 16 21 16 62 -19 43 -37 193 -118 328 -176 151
-66 261 -154 298 -238 44 -103 43 -102 38 -38 -11 140 -115 254 -322 356 -150
72 -224 121 -282 184 -82 89 -101 173 -59 256 62 123 246 152 408 63 44 -23
103 -80 181 -170 15 -18 64 -58 108 -89 116 -81 163 -150 141 -207 -13 -33 -4
-34 49 -7 47 24 90 78 90 111 -1 16 -13 32 -39 50 -50 35 -95 94 -87 115 3 9
11 12 18 8 7 -5 1 8 -13 27 -14 18 -40 59 -57 91 -19 33 -69 91 -120 139 -82
77 -128 126 -230 244 l-43 50 16 -40 c19 -48 59 -118 92 -162 13 -18 20 -33
15 -33 -10 0 -127 128 -190 208 -23 30 -42 51 -42 48z"/>
</g>
</svg>
