<?xml version="1.0" standalone="no"?>
<!DOCTYPE svg PUBLIC "-//W3C//DTD SVG 20010904//EN"
 "http://www.w3.org/TR/2001/REC-SVG-20010904/DTD/svg10.dtd">
<svg version="1.0" xmlns="http://www.w3.org/2000/svg"
 width="866.000000pt" height="650.000000pt" viewBox="0 0 866.000000 650.000000"
 preserveAspectRatio="xMidYMid meet">
<metadata>
Created by potrace 1.16, written by Peter Selinger 2001-2019
</metadata>
<g transform="translate(0.000000,650.000000) scale(0.100000,-0.100000)"
fill="#000000" stroke="none">
<path d="M4060 4874 c0 -3 64 -72 143 -152 199 -205 241 -291 241 -492 0 -239
-147 -484 -456 -758 -59 -53 -106 -97 -104 -99 2 -2 32 14 68 36 159 97 437
226 718 333 336 129 936 294 1280 353 52 9 96 18 98 20 9 9 -95 139 -160 201
-217 205 -500 309 -1103 404 -491 77 -620 104 -681 139 -37 22 -44 25 -44 15z
m474 -163 l140 -27 -85 -56 c-46 -31 -95 -68 -108 -82 -32 -34 -38 -33 -46 7
-4 17 -20 65 -36 105 -16 40 -29 75 -29 77 0 8 17 5 164 -24z m192 -92 c17
-65 19 -199 3 -199 -13 0 -232 61 -238 67 -8 6 52 64 133 129 44 35 82 62 84
60 2 -2 10 -28 18 -57z m239 14 c71 -13 133 -27 137 -30 5 -2 -33 -24 -83 -49
-50 -24 -122 -64 -160 -89 -38 -25 -72 -45 -74 -45 -3 0 -5 22 -5 48 0 42 -8
80 -36 181 -7 23 -6 24 42 17 27 -4 107 -19 179 -33z m189 -70 c-19 -80 -101
-265 -121 -275 -5 -2 -55 19 -111 47 l-104 51 79 51 c103 68 246 153 256 153
4 0 4 -12 1 -27z m177 -19 c156 -49 265 -95 248 -104 -8 -4 -39 -13 -69 -20
-75 -17 -250 -72 -334 -104 -38 -14 -70 -25 -72 -23 -2 2 8 30 21 63 28 70 55
168 55 201 0 31 15 30 151 -13z m-718 -161 c76 -24 90 -35 63 -50 -8 -4 -55
-45 -105 -91 l-91 -83 0 78 c0 43 -3 102 -7 132 l-6 53 34 -7 c19 -4 69 -18
112 -32z m1007 28 c0 -11 -71 -108 -200 -270 l-105 -133 -24 34 c-14 18 -60
68 -103 110 -43 43 -78 80 -78 82 0 10 470 184 503 186 4 0 7 -4 7 -9z m139
-61 c87 -59 251 -203 251 -221 0 -5 -17 -9 -38 -9 -87 0 -459 -61 -582 -96
-20 -6 -11 8 43 65 86 92 144 170 188 255 19 36 37 66 41 66 4 0 47 -27 97
-60z m-901 -64 c117 -60 118 -54 -5 -119 -59 -31 -123 -66 -140 -78 -39 -25
-40 -22 -9 39 13 26 34 80 46 120 12 39 26 72 31 72 5 0 40 -15 77 -34z m-153
-42 c-23 -81 -92 -214 -110 -214 -8 0 -15 3 -15 8 0 4 -20 21 -45 37 -24 17
-45 33 -45 37 0 10 222 199 227 194 3 -3 -3 -30 -12 -62z m406 -111 c75 -55
164 -132 158 -137 -2 -2 -69 -22 -148 -45 -79 -23 -200 -62 -269 -87 -70 -24
-127 -44 -128 -44 -1 0 43 46 99 103 56 57 127 138 157 180 30 42 57 77 60 77
3 0 35 -21 71 -47z m-176 0 c-49 -77 -245 -323 -257 -323 -4 0 -8 16 -8 35 0
19 -9 58 -20 87 -11 29 -20 54 -20 55 0 5 307 172 319 173 2 0 -5 -12 -14 -27z
m-317 -245 c44 -95 50 -88 -111 -153 -78 -32 -163 -68 -189 -81 -70 -35 -68
-30 8 28 38 29 112 96 164 149 52 54 98 98 102 98 3 1 15 -18 26 -41z"/>
<path d="M1988 2480 c2 -73 7 -130 13 -130 10 0 11 12 12 128 1 39 4 72 7 72
3 0 25 -45 49 -100 24 -55 47 -100 51 -100 4 0 27 44 50 98 24 53 47 101 52
107 4 5 8 -22 7 -60 -2 -126 0 -145 14 -145 11 0 14 29 16 130 l2 130 -24 0
c-20 0 -30 -14 -67 -100 -25 -55 -47 -100 -50 -100 -3 0 -25 45 -49 100 -35
82 -47 100 -64 100 -22 0 -22 -2 -19 -130z"/>
<path d="M2742 2533 c-18 -7 -42 -57 -42 -88 0 -33 24 -81 45 -89 9 -3 33 -6
54 -6 42 0 74 27 84 71 9 35 -10 97 -33 109 -19 10 -85 12 -108 3z m90 -30
c36 -41 29 -101 -12 -123 -46 -24 -90 13 -90 75 0 53 69 85 102 48z"/>
<path d="M3095 2515 c-19 -18 -25 -35 -25 -70 0 -62 32 -95 90 -95 58 0 90 34
90 93 0 65 -28 97 -86 97 -34 0 -51 -6 -69 -25z m107 -12 c27 -24 25 -97 -4
-117 -30 -21 -54 -20 -78 4 -60 60 19 170 82 113z"/>
<path d="M2115 2269 c-111 -26 -184 -152 -146 -252 17 -45 70 -95 172 -161
132 -88 163 -141 124 -215 -31 -60 -141 -73 -240 -27 -32 14 -59 26 -62 26 -2
0 -3 -23 -1 -52 3 -50 4 -51 43 -66 23 -8 77 -15 125 -15 104 -1 166 24 212
87 28 38 29 46 26 113 -3 62 -7 77 -34 110 -17 21 -73 66 -124 100 -117 78
-148 108 -156 149 -7 37 15 87 49 109 47 31 145 27 227 -9 15 -6 18 18 11 86
-1 10 -97 28 -144 27 -23 -1 -60 -5 -82 -10z"/>
<path d="M2724 2270 c-68 -14 -111 -37 -162 -85 -68 -63 -103 -143 -110 -251
-14 -234 83 -381 281 -425 55 -12 64 -18 135 -96 l76 -83 58 0 c32 0 58 3 58
8 0 4 -36 43 -80 87 -44 44 -80 82 -80 86 0 3 19 11 41 18 56 17 134 92 170
164 73 144 52 370 -45 484 -44 52 -140 94 -227 98 -41 2 -92 0 -115 -5z m161
-81 c59 -15 117 -67 146 -131 21 -46 24 -68 24 -168 0 -106 -2 -119 -27 -166
-50 -94 -120 -134 -237 -134 -100 0 -177 53 -222 155 -27 60 -32 204 -10 270
48 142 178 211 326 174z"/>
<path d="M4029 2266 c-25 -6 -59 -22 -76 -34 -41 -29 -75 -100 -75 -156 0 -81
40 -130 177 -221 104 -68 135 -102 142 -154 5 -36 2 -44 -29 -75 -57 -57 -125
-57 -250 -2 l-38 16 0 -54 0 -55 76 -17 c94 -20 156 -15 228 20 98 48 134 152
86 251 -22 46 -54 74 -180 157 -127 84 -153 147 -87 213 51 51 136 54 240 10
15 -6 17 -1 17 43 l0 49 -57 12 c-70 14 -115 13 -174 -3z"/>
<path d="M3270 1896 l0 -376 200 0 200 0 0 45 0 45 -150 0 -150 0 -2 328 -3
327 -47 3 -48 3 0 -375z"/>
<path d="M4538 2056 c-125 -34 -197 -150 -185 -302 10 -133 66 -206 186 -241
47 -13 65 -14 120 -4 98 18 121 33 121 80 l0 39 -57 -24 c-118 -48 -212 -23
-258 70 -45 90 -51 86 160 86 l185 0 0 73 c-1 124 -57 204 -160 226 -60 13
-52 13 -112 -3z m128 -93 c24 -16 50 -64 56 -103 l3 -25 -137 -3 c-153 -3
-151 -4 -124 62 35 84 130 116 202 69z"/>
<path d="M5911 2059 c-63 -19 -119 -68 -151 -132 -26 -53 -30 -71 -30 -147 0
-74 4 -94 28 -141 62 -123 216 -167 367 -103 32 13 35 18 35 54 0 22 -2 40 -5
40 -3 0 -24 -9 -47 -21 -63 -32 -144 -36 -195 -11 -46 24 -81 73 -90 127 l-6
35 187 0 186 0 0 68 c-1 99 -43 182 -112 218 -36 19 -125 26 -167 13z m116
-86 c36 -17 72 -76 73 -118 0 -19 -7 -20 -136 -20 l-136 0 5 33 c11 65 73 121
135 122 13 0 40 -8 59 -17z"/>
<path d="M5074 2041 c-17 -10 -40 -32 -52 -47 l-21 -29 -1 43 0 42 -45 0 -45
0 0 -265 0 -265 44 0 44 0 3 173 c4 166 5 174 31 218 31 53 71 74 123 66 l35
-6 0 45 0 44 -42 0 c-24 0 -56 -8 -74 -19z"/>
<path d="M6449 2045 c-15 -8 -36 -29 -48 -47 l-21 -33 0 43 0 42 -45 0 -45 0
0 -265 0 -265 45 0 45 0 0 168 c0 186 11 227 66 271 24 19 38 22 77 18 l47 -4
0 43 0 44 -47 0 c-27 -1 -60 -7 -74 -15z"/>
<path d="M5254 1958 c49 -134 142 -378 157 -410 10 -24 18 -28 54 -28 49 0 37
-22 146 255 39 99 79 201 90 228 l19 47 -45 0 c-52 0 -42 16 -123 -205 -28
-77 -58 -158 -68 -180 l-16 -40 -34 90 c-19 50 -52 145 -75 213 l-41 122 -48
0 -49 0 33 -92z"/>
</g>
</svg>
