<?xml version="1.0" standalone="no"?>
<!DOCTYPE svg PUBLIC "-//W3C//DTD SVG 20010904//EN"
 "http://www.w3.org/TR/2001/REC-SVG-20010904/DTD/svg10.dtd">
<svg version="1.0" xmlns="http://www.w3.org/2000/svg"
 width="1200.000000pt" height="1533.000000pt" viewBox="0 0 1200.000000 1533.000000"
 preserveAspectRatio="xMidYMid meet">

<g transform="translate(0.000000,1533.000000) scale(0.100000,-0.100000)"
fill="#000000" stroke="none">
<path d="M3160 15315 c-25 -8 -72 -30 -105 -50 -38 -23 -67 -34 -80 -31 -11 3
-63 17 -115 31 -198 54 -380 24 -503 -83 -15 -13 -40 -16 -135 -14 -173 4
-266 -26 -344 -112 l-29 -31 -117 3 c-250 7 -432 -53 -551 -183 l-50 -55 -68
6 c-87 7 -214 -15 -285 -51 -147 -73 -221 -220 -197 -389 8 -60 37 -153 58
-185 6 -9 0 -29 -20 -61 -65 -105 -83 -160 -83 -245 0 -96 23 -162 93 -267
l47 -70 -18 -51 c-46 -135 -7 -276 125 -449 l64 -83 -7 -60 c-10 -86 5 -180
41 -253 29 -59 118 -162 180 -208 24 -18 27 -28 31 -102 4 -69 11 -93 42 -158
48 -96 144 -199 267 -286 78 -55 91 -68 100 -103 52 -207 185 -336 423 -410
l69 -21 22 -62 c56 -154 158 -234 385 -302 57 -16 105 -30 108 -30 4 0 -37
-26 -90 -59 -674 -410 -1028 -862 -1187 -1512 -43 -176 -69 -371 -82 -614
l-12 -210 -53 -95 c-44 -79 -61 -100 -101 -125 -132 -83 -313 -251 -439 -410
-280 -354 -461 -775 -526 -1230 -20 -137 -17 -485 6 -620 70 -435 256 -833
546 -1175 43 -51 48 -63 69 -165 35 -169 101 -387 205 -678 52 -147 98 -283
101 -304 98 -592 331 -1051 739 -1458 247 -246 557 -458 794 -545 63 -23 111
-52 224 -136 431 -320 824 -544 1253 -711 l139 -55 101 -96 c342 -329 754
-568 1158 -671 209 -54 426 -81 647 -81 689 0 1286 251 1825 765 83 80 97 89
185 122 425 159 838 392 1295 729 86 63 169 116 194 124 80 26 274 126 386
200 625 413 1043 1040 1161 1745 11 69 44 178 105 350 109 303 169 500 204
665 14 69 31 135 38 146 7 12 43 59 80 105 256 313 429 689 498 1077 27 148
36 445 20 604 -68 661 -434 1320 -931 1676 -89 65 -98 74 -147 162 -52 91 -53
94 -53 174 0 44 -5 144 -10 221 -50 667 -261 1167 -660 1565 -162 162 -390
335 -618 470 -40 24 -69 46 -65 50 4 3 51 19 103 34 221 64 333 155 384 311
16 49 17 50 78 68 231 66 379 206 428 402 12 47 18 54 98 110 205 144 307 293
317 461 l4 63 84 83 c128 125 176 240 162 389 l-6 78 49 63 c139 177 182 324
136 466 l-17 50 48 72 c117 176 124 315 25 484 l-41 69 24 61 c86 214 43 406
-113 506 -83 53 -159 72 -291 74 l-117 1 -22 32 c-26 38 -107 102 -168 132
-92 47 -186 64 -359 67 l-163 2 -26 31 c-67 80 -169 113 -339 109 l-120 -2
-50 37 c-133 98 -312 116 -513 52 -42 -14 -82 -25 -89 -25 -6 0 -35 15 -63 34
-29 19 -81 42 -116 52 -107 29 -180 14 -404 -80 l-86 -35 -49 16 c-32 10 -89
16 -157 17 l-107 1 -129 -67 -129 -67 -92 11 c-187 24 -294 -17 -462 -179
l-108 -104 -93 6 -93 7 -65 -42 c-252 -164 -477 -430 -654 -771 -66 -128 -165
-368 -187 -452 -6 -27 -15 -45 -19 -40 -4 4 -18 40 -30 78 -90 280 -267 615
-437 825 -90 111 -266 277 -366 344 l-88 59 -96 -7 -95 -7 -109 106 c-164 160
-272 201 -460 178 l-91 -12 -127 65 c-118 62 -131 66 -206 70 -59 4 -101 0
-160 -15 l-79 -19 -149 60 c-127 51 -160 61 -225 64 -50 3 -93 -1 -122 -11z
m265 -446 c108 -54 222 -132 329 -224 48 -42 92 -73 96 -68 4 4 22 28 39 52
35 50 42 116 17 176 -8 19 -12 35 -7 35 13 0 159 -104 231 -165 39 -33 101
-95 137 -137 73 -86 81 -87 125 -26 20 29 23 44 22 125 0 80 2 91 15 83 31
-16 202 -192 337 -346 l137 -156 19 24 c19 24 58 137 58 168 0 39 20 28 90
-47 165 -179 320 -408 431 -638 122 -254 171 -440 171 -655 0 -161 -19 -250
-84 -379 -67 -134 -221 -282 -376 -360 l-44 -22 -51 41 c-779 621 -1697 1115
-2790 1501 -153 54 -188 61 -112 23 249 -128 594 -317 895 -492 730 -424 1261
-807 1653 -1192 l158 -155 -25 -78 c-155 -470 -584 -762 -1269 -862 -141 -20
-465 -38 -544 -30 l-63 7 63 41 c59 40 107 95 107 123 0 23 -97 42 -285 58
-99 9 -218 23 -264 31 -121 23 -277 85 -215 85 49 1 174 83 174 114 0 6 -57
29 -128 50 -258 80 -442 154 -537 219 l-35 24 79 6 c81 5 207 50 195 69 -3 5
-67 40 -143 77 -236 118 -373 204 -505 314 l-29 24 114 10 c105 10 169 26 169
43 0 4 -33 29 -72 55 -134 88 -261 189 -366 290 l-105 101 78 -4 c80 -4 180
11 191 30 4 5 -79 94 -184 197 -122 119 -205 209 -231 250 -23 35 -40 65 -39
67 2 1 28 -4 58 -12 75 -19 181 -18 225 3 19 9 35 22 35 28 0 21 -32 55 -138
146 -59 50 -124 110 -145 133 -40 43 -137 183 -137 197 0 4 63 5 140 2 126 -5
140 -4 146 11 19 48 -86 291 -195 451 l-61 90 324 6 c179 4 337 10 352 13 27
7 26 8 -65 100 l-93 94 64 11 c91 16 267 14 369 -4 48 -8 144 -31 214 -50 120
-33 129 -34 147 -19 45 41 11 127 -82 207 -24 20 -41 37 -39 37 3 0 57 -9 120
-21 147 -26 285 -61 416 -105 100 -34 105 -35 118 -17 20 26 18 73 -5 108 -10
16 -50 57 -87 91 l-68 62 54 -10 c156 -28 375 -110 516 -193 52 -30 99 -55
105 -55 16 0 50 62 50 93 0 38 -23 85 -66 135 -19 22 -34 43 -34 46 0 8 44
-10 135 -55z m5293 19 c-49 -60 -68 -101 -68 -146 0 -38 30 -92 51 -92 5 0 32
15 61 34 125 79 293 150 453 189 177 44 169 47 84 -32 -83 -76 -113 -125 -103
-165 11 -45 27 -50 87 -28 124 47 353 104 546 136 l33 6 -65 -69 c-73 -78 -87
-113 -62 -160 8 -17 20 -31 24 -31 5 0 63 15 128 34 186 54 302 69 461 63 203
-8 198 -2 97 -111 -68 -73 -81 -93 -68 -100 8 -4 165 -11 348 -14 l333 -5 -65
-96 c-79 -115 -144 -246 -180 -359 -22 -71 -24 -86 -12 -94 8 -5 70 -7 151 -4
l138 5 -19 -37 c-36 -71 -108 -158 -192 -232 -148 -132 -221 -208 -214 -220
24 -39 163 -52 263 -26 28 8 52 11 52 6 0 -4 -19 -36 -42 -71 -45 -68 -171
-200 -328 -342 -77 -71 -92 -89 -80 -97 32 -21 98 -32 182 -28 l87 3 -47 -48
c-83 -85 -260 -230 -383 -314 l-120 -82 25 -16 c16 -11 63 -20 133 -26 59 -5
112 -11 117 -13 15 -4 -121 -112 -214 -170 -47 -29 -166 -95 -265 -146 -99
-51 -182 -95 -184 -97 -3 -2 4 -10 15 -18 32 -25 143 -55 203 -55 l56 0 -25
-21 c-56 -45 -239 -124 -448 -192 -122 -41 -225 -76 -228 -79 -3 -4 12 -24 35
-47 28 -28 58 -45 101 -59 l62 -19 -49 -21 c-107 -46 -245 -73 -443 -87 -140
-10 -242 -26 -272 -41 -27 -14 -28 -16 -14 -43 18 -34 83 -94 128 -117 l33
-18 -50 -9 c-67 -12 -412 7 -582 32 -595 88 -1011 344 -1193 734 -21 45 -46
108 -55 140 l-17 57 66 73 c72 81 269 262 420 387 469 387 1210 855 2066 1304
102 54 189 102 195 107 16 16 -347 -116 -615 -223 -477 -190 -944 -417 -1370
-666 -278 -162 -713 -461 -937 -644 l-72 -59 -53 27 c-235 119 -390 314 -440
552 -24 114 -21 284 7 416 72 342 291 739 594 1074 l66 72 17 -69 c16 -67 49
-144 66 -155 4 -2 75 72 157 166 83 94 191 208 240 255 l90 84 5 -93 c5 -98
12 -118 55 -158 l27 -25 30 40 c81 105 280 276 405 348 6 4 3 -14 -8 -43 -31
-81 -21 -128 39 -198 l27 -32 95 81 c52 44 126 102 165 127 66 45 270 152 289
152 4 0 -7 -19 -26 -42z"/>
</g>
</svg>
