<?xml version="1.0" standalone="no"?>
<!DOCTYPE svg PUBLIC "-//W3C//DTD SVG 20010904//EN"
 "http://www.w3.org/TR/2001/REC-SVG-20010904/DTD/svg10.dtd">
<svg version="1.0" xmlns="http://www.w3.org/2000/svg"
 width="300.000000pt" height="249.000000pt" viewBox="0 0 300.000000 249.000000"
 preserveAspectRatio="xMidYMid meet">
<metadata>
Created by potrace 1.16, written by Peter Selinger 2001-2019
</metadata>
<g transform="translate(0.000000,249.000000) scale(0.100000,-0.100000)"
fill="#000000" stroke="none">
<path d="M1325 2476 c-227 -52 -417 -200 -524 -405 -136 -261 -117 -583 48
-818 279 -397 837 -458 1189 -129 175 164 262 378 249 616 -7 131 -25 200 -82
315 -97 197 -249 329 -460 401 -69 23 -99 28 -220 30 -94 3 -160 -1 -200 -10z
m520 -236 c25 -25 30 -39 30 -76 0 -39 -5 -50 -33 -75 -46 -41 -111 -41 -153
0 -53 54 -35 146 35 177 42 19 85 10 121 -26z m-252 -87 c21 -3 33 -15 43 -38
7 -18 27 -44 44 -59 26 -22 42 -26 90 -26 56 0 60 -2 89 -39 42 -53 79 -128
92 -190 16 -77 12 -82 -73 -79 -71 3 -73 4 -81 33 -36 118 -106 200 -198 230
-50 17 -144 17 -210 0 -23 -6 -28 -1 -60 57 -19 34 -35 66 -37 69 -4 10 85 41
142 49 49 8 97 6 159 -7z m-304 -130 l40 -67 -39 -38 c-62 -63 -85 -119 -85
-213 0 -67 4 -89 28 -137 15 -31 44 -70 63 -87 l35 -31 -38 -65 c-21 -35 -43
-65 -49 -65 -23 0 -124 113 -154 172 -16 34 -30 68 -30 76 0 8 12 39 26 68 30
61 28 104 -6 147 -27 34 -25 58 7 125 23 48 139 182 157 182 2 0 23 -30 45
-67z m-256 -234 c15 -11 32 -37 38 -58 31 -103 -106 -186 -179 -108 -50 53
-48 125 5 167 35 27 102 27 136 -1z m923 -124 c15 -38 -43 -188 -96 -248 -28
-33 -37 -37 -79 -37 -63 0 -111 -28 -136 -78 -23 -48 -56 -62 -145 -62 -56 0
-154 21 -191 41 -19 10 -18 13 17 77 21 37 38 68 38 69 1 1 28 -6 61 -14 160
-42 327 58 365 217 l12 50 74 0 c58 0 76 -3 80 -15z m-136 -330 c32 -17 60
-61 60 -95 0 -29 -26 -76 -52 -94 -46 -33 -128 -13 -154 35 -25 50 -18 97 20
135 38 38 77 44 126 19z"/>
<path d="M573 783 l-23 -4 0 -379 0 -378 50 -11 c83 -18 228 -14 275 8 98 44
151 150 142 282 -7 104 -42 171 -111 214 -43 26 -59 30 -120 30 -39 0 -83 -4
-98 -9 l-28 -8 0 131 0 131 -32 -1 c-18 -1 -43 -4 -55 -6z m273 -349 c35 -23
53 -63 60 -132 14 -130 -52 -212 -170 -212 -79 0 -76 -7 -76 172 l0 159 33 14
c44 20 122 19 153 -1z"/>
<path d="M2240 691 l-35 -6 -3 -280 c-2 -274 -2 -281 20 -325 30 -58 72 -80
157 -80 72 0 141 17 141 35 0 7 -5 27 -11 44 -9 27 -15 32 -33 27 -11 -4 -42
-9 -67 -12 -39 -5 -49 -3 -75 19 l-29 25 -4 156 -3 156 101 0 101 0 0 45 0 45
-100 0 -100 0 0 80 c0 58 -3 80 -12 79 -7 -1 -29 -4 -48 -8z"/>
<path d="M1720 537 l-55 -12 -3 -258 -2 -257 50 0 50 0 0 220 0 220 76 0 c135
0 144 -16 144 -265 l0 -175 55 0 55 0 0 170 c0 209 -10 262 -59 311 -20 20
-54 42 -76 48 -50 14 -163 13 -235 -2z"/>
<path d="M2 338 c4 -230 11 -256 74 -304 37 -29 39 -29 168 -28 72 1 143 6
159 13 l27 11 0 255 0 255 -55 0 -55 0 0 -220 0 -219 -36 -7 c-56 -10 -114 2
-142 29 -29 30 -41 112 -41 300 l-1 117 -51 0 -51 0 4 -202z"/>
<path d="M1102 348 c4 -150 9 -202 22 -233 40 -95 97 -120 259 -113 171 8 157
-18 157 283 l0 255 -55 0 -55 0 0 -219 0 -220 -54 -6 c-72 -9 -121 7 -143 48
-14 26 -18 66 -21 215 l-4 182 -55 0 -56 0 5 -192z"/>
<path d="M2572 343 c3 -125 9 -209 17 -228 17 -41 59 -85 98 -101 39 -17 191
-19 263 -3 l50 11 0 259 0 259 -50 0 -50 0 0 -219 0 -220 -46 -7 c-57 -8 -111
0 -135 22 -31 28 -39 80 -39 257 l0 167 -56 0 -56 0 4 -197z"/>
</g>
</svg>
